HIERARCHY
ROOT Hips
{
    OFFSET   0.000000   0.000000   0.000000
    CHANNELS 6 Xposition Yposition Zposition Zrotation Xrotation Yrotation
    JOINT Chest
    {
        OFFSET   0.000000   8.007230   0.000000
        CHANNELS 3 Zrotation Xrotation Yrotation
        JOINT Chest2
        {
            OFFSET   0.000000  22.077100   0.000000
            CHANNELS 3 Zrotation Xrotation Yrotation
            JOINT Neck
            {
                OFFSET   0.000000  23.255100   0.000000
                CHANNELS 3 Zrotation Xrotation Yrotation
                JOINT Head
                {
                    OFFSET   0.000000  14.370100   1.956600
                    CHANNELS 3 Zrotation Xrotation Yrotation
                    End Site
                    {
                        OFFSET   0.000000  19.566000   0.000000
                    }
                }
            }
            JOINT LeftCollar
            {
                OFFSET   3.911900  19.017000  -0.467063
                CHANNELS 3 Zrotation Xrotation Yrotation
                JOINT LeftShoulder
                {
                    OFFSET  10.383700   0.000000   0.000000
                    CHANNELS 3 Zrotation Xrotation Yrotation
                    JOINT LeftElbow
                    {
                        OFFSET  26.662100   0.001193   0.000980
                        CHANNELS 3 Zrotation Xrotation Yrotation
                        JOINT LeftWrist
                        {
                            OFFSET  28.869000  -0.000059  -0.000082
                            CHANNELS 3 Zrotation Xrotation Yrotation
                            JOINT LeftFinger0
                            {
                                OFFSET   2.044650  -2.323450   3.252850
                                CHANNELS 3 Zrotation Xrotation Yrotation
                                JOINT LeftFinger01
                                {
                                    OFFSET   3.088130   0.000000   0.000000
                                    CHANNELS 3 Zrotation Xrotation Yrotation
                                    JOINT LeftFinger02
                                    {
                                        OFFSET   2.639460   0.000000   0.000000
                                        CHANNELS 3 Zrotation Xrotation Yrotation
                                        End Site
                                        {
                                            OFFSET   2.582190   0.000000   0.000000
                                        }
                                    }
                                }
                            }
                            JOINT LeftFinger1
                            {
                                OFFSET   8.364480   0.000000   3.252850
                                CHANNELS 3 Zrotation Xrotation Yrotation
                                JOINT LeftFinger11
                                {
                                    OFFSET   4.646930   0.000000   0.000000
                                    CHANNELS 3 Zrotation Xrotation Yrotation
                                    JOINT LeftFinger12
                                    {
                                        OFFSET   2.323470   0.000000   0.000000
                                        CHANNELS 3 Zrotation Xrotation Yrotation
                                        End Site
                                        {
                                            OFFSET   2.273050   0.000000   0.000000
                                        }
                                    }
                                }
                            }
                            JOINT LeftFinger2
                            {
                                OFFSET   8.364490   0.000016   1.078090
                                CHANNELS 3 Zrotation Xrotation Yrotation
                                JOINT LeftFinger21
                                {
                                    OFFSET   5.111610   0.000000   0.000000
                                    CHANNELS 3 Zrotation Xrotation Yrotation
                                    JOINT LeftFinger22
                                    {
                                        OFFSET   2.788150   0.000016   0.000000
                                        CHANNELS 3 Zrotation Xrotation Yrotation
                                        End Site
                                        {
                                            OFFSET   2.727660   0.000000   0.000000
                                        }
                                    }
                                }
                            }
                            JOINT LeftFinger3
                            {
                                OFFSET   7.899780   0.000015  -1.078090
                                CHANNELS 3 Zrotation Xrotation Yrotation
                                JOINT LeftFinger31
                                {
                                    OFFSET   4.646930   0.000000   0.000000
                                    CHANNELS 3 Zrotation Xrotation Yrotation
                                    JOINT LeftFinger32
                                    {
                                        OFFSET   2.323470   0.000000   0.000000
                                        CHANNELS 3 Zrotation Xrotation Yrotation
                                        End Site
                                        {
                                            OFFSET   2.273050   0.000000   0.000000
                                        }
                                    }
                                }
                            }
                            JOINT LeftFinger4
                            {
                                OFFSET   7.435090   0.000000  -3.252850
                                CHANNELS 3 Zrotation Xrotation Yrotation
                                JOINT LeftFinger41
                                {
                                    OFFSET   3.717550   0.000000   0.000000
                                    CHANNELS 3 Zrotation Xrotation Yrotation
                                    JOINT LeftFinger42
                                    {
                                        OFFSET   1.858770   0.000000   0.000000
                                        CHANNELS 3 Zrotation Xrotation Yrotation
                                        End Site
                                        {
                                            OFFSET   1.818440   0.000000   0.000000
                                        }
                                    }
                                }
                            }
                        }
                    }
                }
            }
            JOINT RightCollar
            {
                OFFSET  -3.911910  19.017000  -0.467062
                CHANNELS 3 Zrotation Xrotation Yrotation
                JOINT RightShoulder
                {
                    OFFSET -10.383700   0.000014   0.000000
                    CHANNELS 3 Zrotation Xrotation Yrotation
                    JOINT RightElbow
                    {
                        OFFSET -26.662100   0.001225   0.001091
                        CHANNELS 3 Zrotation Xrotation Yrotation
                        JOINT RightWrist
                        {
                            OFFSET -28.869000  -0.000020  -0.000085
                            CHANNELS 3 Zrotation Xrotation Yrotation
                            JOINT RightFinger0
                            {
                                OFFSET  -2.044650  -2.323490   3.252850
                                CHANNELS 3 Zrotation Xrotation Yrotation
                                JOINT RightFinger01
                                {
                                    OFFSET  -3.088130   0.000000   0.000000
                                    CHANNELS 3 Zrotation Xrotation Yrotation
                                    JOINT RightFinger02
                                    {
                                        OFFSET  -2.639460   0.000000   0.000000
                                        CHANNELS 3 Zrotation Xrotation Yrotation
                                        End Site
                                        {
                                            OFFSET  -2.582190   0.000000   0.000000
                                        }
                                    }
                                }
                            }
                            JOINT RightFinger1
                            {
                                OFFSET  -8.364480   0.000000   3.252850
                                CHANNELS 3 Zrotation Xrotation Yrotation
                                JOINT RightFinger11
                                {
                                    OFFSET  -4.646930   0.000000   0.000000
                                    CHANNELS 3 Zrotation Xrotation Yrotation
                                    JOINT RightFinger12
                                    {
                                        OFFSET  -2.323470   0.000000   0.000000
                                        CHANNELS 3 Zrotation Xrotation Yrotation
                                        End Site
                                        {
                                            OFFSET  -2.273050   0.000000   0.000000
                                        }
                                    }
                                }
                            }
                            JOINT RightFinger2
                            {
                                OFFSET  -8.364480   0.000000   1.078090
                                CHANNELS 3 Zrotation Xrotation Yrotation
                                JOINT RightFinger21
                                {
                                    OFFSET  -5.111620   0.000000   0.000000
                                    CHANNELS 3 Zrotation Xrotation Yrotation
                                    JOINT RightFinger22
                                    {
                                        OFFSET  -2.788160   0.000000   0.000000
                                        CHANNELS 3 Zrotation Xrotation Yrotation
                                        End Site
                                        {
                                            OFFSET  -2.727660   0.000000   0.000000
                                        }
                                    }
                                }
                            }
                            JOINT RightFinger3
                            {
                                OFFSET  -7.899780   0.000000  -1.078090
                                CHANNELS 3 Zrotation Xrotation Yrotation
                                JOINT RightFinger31
                                {
                                    OFFSET  -4.646930   0.000000   0.000000
                                    CHANNELS 3 Zrotation Xrotation Yrotation
                                    JOINT RightFinger32
                                    {
                                        OFFSET  -2.323470   0.000000   0.000000
                                        CHANNELS 3 Zrotation Xrotation Yrotation
                                        End Site
                                        {
                                            OFFSET  -2.273050   0.000000   0.000000
                                        }
                                    }
                                }
                            }
                            JOINT RightFinger4
                            {
                                OFFSET  -7.435090   0.000000  -3.252850
                                CHANNELS 3 Zrotation Xrotation Yrotation
                                JOINT RightFinger41
                                {
                                    OFFSET  -3.717550   0.000000   0.000000
                                    CHANNELS 3 Zrotation Xrotation Yrotation
                                    JOINT RightFinger42
                                    {
                                        OFFSET  -1.858760   0.000000   0.000000
                                        CHANNELS 3 Zrotation Xrotation Yrotation
                                        End Site
                                        {
                                            OFFSET  -1.818440   0.000000   0.000000
                                        }
                                    }
                                }
                            }
                        }
                    }
                }
            }
        }
    }
    JOINT LeftHip
    {
        OFFSET   9.783030   0.000000   0.000000
        CHANNELS 3 Zrotation Xrotation Yrotation
        JOINT LeftKnee
        {
            OFFSET   0.000063 -41.789100   0.000608
            CHANNELS 3 Zrotation Xrotation Yrotation
            JOINT LeftAnkle
            {
                OFFSET   0.000048 -41.133200  -0.000184
                CHANNELS 3 Zrotation Xrotation Yrotation
                JOINT LeftToe
                {
                    OFFSET   0.000000  -6.358960  14.674500
                    CHANNELS 3 Zrotation Xrotation Yrotation
                    End Site
                    {
                        OFFSET   0.000000   0.000000   3.913200
                    }
                }
            }
        }
    }
    JOINT RightHip
    {
        OFFSET  -9.783030   0.000000   0.000000
        CHANNELS 3 Zrotation Xrotation Yrotation
        JOINT RightKnee
        {
            OFFSET   0.000071 -41.789100   0.001239
            CHANNELS 3 Zrotation Xrotation Yrotation
            JOINT RightAnkle
            {
                OFFSET   0.000037 -41.133200  -0.000166
                CHANNELS 3 Zrotation Xrotation Yrotation
                JOINT RightToe
                {
                    OFFSET   0.000000  -6.358960  14.674500
                    CHANNELS 3 Zrotation Xrotation Yrotation
                    End Site
                    {
                        OFFSET   0.000000   0.000000   3.913200
                    }
                }
            }
        }
    }
}
MOTION
Frames: 4
Frame Time:   0.016667
 -4.222130  89.204400   4.028720  -5.072790 -15.108000  -8.380340   2.181460   9.312230   0.441639   4.377790  18.634500   0.528802   5.861190  -0.719356   0.076523   9.633010  -1.412620   1.448620  -6.937140  -3.389290  -2.118980 -67.290800  30.168600 -10.365900  -3.127040  -9.849340 -15.043400  16.412100 -15.423800   9.350600  39.698000  34.349700 -61.971300 -32.773100   0.002389   0.006167 -11.386600   0.008003   0.004108 -35.544000   6.522510  -9.034050 -29.503400   0.001794   0.009194 -20.652400  -0.007983   0.005812 -29.943800  -0.770389   1.337040 -44.929200  -0.003995   0.003339 -29.922800  -0.000158  -0.005210 -29.051200  -0.749463   1.348880 -43.590100   0.001512   0.006647 -29.031000  -0.004667   0.003711 -34.824300  -0.881359   1.266650 -52.251100  -0.008695   0.003200 -34.799300  -0.003334  -0.001530   8.811010  -2.828920  10.061100  52.257800  -2.934040  40.294800 -21.674000 -52.726900 101.517000  83.115100 -52.154500  91.226000 -45.178700  37.146700  78.000000  18.499400   0.007694  -0.002581   4.249670   0.004057  -0.001367  34.020700   6.805210   9.973620  28.322800   0.002245   0.007548  19.826000  -0.008435   0.007334  28.773300   0.967858   1.784000  41.884600   0.001745   0.000279  27.895100   0.001240  -0.000344  32.601300  -2.659180  -4.130080  49.039900   0.001389   0.002376  32.660600   0.000915   0.000851  44.426900  -3.415600  -3.458950  66.787900   0.002213   0.001060  44.480700   0.001862  -0.000764   5.770150  19.091200   5.195750   2.633100   3.671340   9.613500  -6.407830  -5.564370   0.880243  -0.000000   0.000000  -0.000000   5.559870  18.587700  -7.496240   0.624951   1.708570  -6.654240  -2.415000  -6.176260   6.258460  -0.000000   0.000000  -0.000000
 -4.166520  89.206600   4.055490  -5.008960 -15.088600  -8.130390   2.163290   9.263650   0.456089   4.337700  18.537900   0.563338   5.755720  -0.757840   0.077796   9.459840  -1.489680   1.306740  -7.008250  -3.424900  -2.093720 -67.480600  30.066400 -10.185400  -3.075260  -9.709760 -15.047200  16.393900 -15.337100   9.327850  39.688500  34.327400 -61.938300 -32.765900   0.002389   0.003451 -11.380900   0.008003  -0.001487 -35.527500   6.507730  -9.019420 -29.488400   0.001796   0.004422 -20.641800  -0.005541   0.003245 -29.920900  -0.781411   1.357400 -44.895300  -0.003997   0.003335 -29.900300  -0.000158  -0.005207 -29.031800  -0.760258   1.369370 -43.561500   0.001512   0.004597 -29.011900  -0.004666   0.003713 -34.803900  -0.894140   1.285940 -52.221100  -0.010055   0.002920 -34.779200  -0.003374  -0.001529   8.913340  -2.992880  10.081400  52.582900  -2.616640  39.482900 -21.873400 -52.240700 101.272000  82.586100 -52.838400  90.152800 -45.893400  37.090100  77.679000  18.986000   0.015276  -0.005213   4.492970   0.004185  -0.001146  33.694800   6.958080  10.316100  28.091900  -0.000041   0.007826  19.664300  -0.008587   0.007612  28.758500   1.249800   2.306520  41.347000  -0.002732   0.005692  27.537100  -0.000015   0.004236  32.182100  -2.080400  -3.265460  48.367300  -0.000829   0.007159  32.212600   0.000828   0.004426  43.859600  -2.715770  -2.790110  65.885900   0.002183   0.013698  43.880000   0.007960   0.005198   5.761030  19.124000   5.175830   2.619450   3.465130   9.571480  -6.379180  -5.456510   0.726978   0.000000   0.000000  -0.000000   5.552310  18.587300  -7.475570   0.628553   1.681710  -6.759140  -2.404530  -6.181130   6.107620   0.000000   0.000000  -0.000000
 -4.100260  89.208800   4.077380  -4.948590 -15.065300  -7.893200   2.143020   9.218930   0.482169   4.291430  18.449500   0.621737   5.637390  -0.809747   0.079913   9.265800  -1.593490   1.150060  -7.088950  -3.491440  -2.055400 -67.659400  29.964400  -9.993190  -3.023190  -9.569370 -15.046000  16.378000 -15.246100   9.298220  39.670300  34.276900 -61.863600 -32.760600   0.002389   0.001651 -11.376200   0.008002  -0.005708 -35.504800   6.493310  -9.007290 -29.468400   0.001800   0.002355 -20.627800  -0.004524   0.002510 -29.895700  -0.797799   1.387260 -44.858200  -0.003999   0.003331 -29.875600  -0.000157  -0.005204 -29.010700  -0.776285   1.399420 -43.530500   0.001511   0.003572 -28.991300  -0.004664   0.003715 -34.780200  -0.913044   1.314240 -52.186400  -0.011002   0.002394 -34.756100  -0.003380  -0.001528   9.032580  -3.202920  10.109900  52.820800  -2.245390  38.512700 -22.286400 -51.774800 100.796000  81.969200 -53.576900  88.967500 -46.611000  37.065500  77.333900  19.526800   0.021672  -0.007574   4.763380   0.004308  -0.000920  33.419700   7.176060  10.746200  27.898000  -0.004086   0.008110  19.528600  -0.008756   0.007929  28.737900   1.594890   2.944440  40.809300  -0.012639   0.015375  27.179000  -0.002954   0.012927  31.593300  -1.472610  -2.329040  47.476200  -0.009814   0.017978  31.619100   0.000538   0.013713  43.129000  -2.104370  -2.200480  64.761000   0.002078   0.034657  43.130800   0.016336   0.016412   5.744530  19.145200   5.157330   2.609170   3.272240   9.524390  -6.342630  -5.362370   0.591228   0.000000   0.000000   0.000000   5.539790  18.587100  -7.439460   0.632376   1.652720  -6.863060  -2.390740  -6.183750   5.953930   0.000000   0.000000   0.000000
 -4.024070  89.210700   4.095820  -4.889750 -15.031800  -7.660790   2.116690   9.170460   0.529205   4.229380  18.354200   0.723941   5.511560  -0.874510   0.084226   9.059660  -1.723190   0.947252  -7.166970  -3.562500  -2.033930 -67.825000  29.859200  -9.792180  -2.968360  -9.427720 -15.032300  16.376600 -15.182800   9.287290  39.639900  34.211700 -61.739600 -32.766300   0.002395   0.001603 -11.377000   0.008001  -0.006192 -35.472300   6.467930  -8.983350 -29.439200   0.001803   0.002350 -20.607400  -0.004526   0.002509 -29.868800  -0.828259   1.441790 -44.819000  -0.003998   0.003330 -29.849500  -0.000158  -0.005204 -28.987500  -0.805990   1.454350 -43.496900   0.001513   0.003571 -28.968900  -0.004663   0.003715 -34.750200  -0.947944   1.366010 -52.142600  -0.012093   0.001811 -34.727000  -0.003308  -0.001529   9.173480  -3.440110  10.124500  52.946700  -1.741910  37.372400 -22.948200 -51.393200  99.859000  81.113500 -54.250900  87.446800 -47.182000  37.181700  76.992200  20.131200   0.021604  -0.007904   5.065610   0.004423  -0.000697  33.258600   7.498310  11.272300  27.841700  -0.011144   0.008395  19.489200  -0.008868   0.008295  28.702600   2.045900   3.772690  40.390500  -0.027462   0.027042  26.900100  -0.008927   0.024420  30.708100  -0.853023  -1.321050  46.452100  -0.030765   0.035539  30.937100  -0.005716   0.030309  42.213700  -1.745470  -1.860290  63.376200  -0.003724   0.057515  42.208500   0.021404   0.031946   5.718230  19.141900   5.131310   2.607190   3.108480   9.455890  -6.296440  -5.296110   0.488489  -0.000000   0.000000  -0.000000   5.517320  18.578400  -7.401060   0.638581   1.620290  -6.954030  -2.372400  -6.181890   5.795170  -0.000000   0.000000   0.000000
